<?xml version="1.0" encoding="utf-8" standalone="no"?>
<!DOCTYPE svg PUBLIC "-//W3C//DTD SVG 1.1//EN"
  "http://www.w3.org/Graphics/SVG/1.1/DTD/svg11.dtd">
<svg xmlns:xlink="http://www.w3.org/1999/xlink" width="720pt" height="432pt" viewBox="0 0 720 432" xmlns="http://www.w3.org/2000/svg" version="1.1">
 <metadata>
  <rdf:RDF xmlns:dc="http://purl.org/dc/elements/1.1/" xmlns:cc="http://creativecommons.org/ns#" xmlns:rdf="http://www.w3.org/1999/02/22-rdf-syntax-ns#">
   <cc:Work>
    <dc:type rdf:resource="http://purl.org/dc/dcmitype/StillImage"/>
    <dc:date>2025-10-23T16:56:38.202598</dc:date>
    <dc:format>image/svg+xml</dc:format>
    <dc:creator>
     <cc:Agent>
      <dc:title>Matplotlib v3.10.3, https://matplotlib.org/</dc:title>
     </cc:Agent>
    </dc:creator>
   </cc:Work>
  </rdf:RDF>
 </metadata>
 <defs>
  <style type="text/css">*{stroke-linejoin: round; stroke-linecap: butt}</style>
 </defs>
 <g id="figure_1">
  <g id="patch_1">
   <path d="M 0 432 
L 720 432 
L 720 0 
L 0 0 
z
" style="fill: #ffffff"/>
  </g>
  <g id="axes_1">
   <g id="patch_2">
    <path d="M 75.89 382.84 
L 709.2 382.84 
L 709.2 10.8 
L 75.89 10.8 
z
" style="fill: #ffffff"/>
   </g>
   <g id="patch_3">
    <path d="M 126.992181 248.368544 
L 144.844471 248.368544 
L 144.844471 250.13606 
L 126.992181 250.13606 
z
" clip-path="url(#pcec6533dca)" style="fill: #a52a2a"/>
   </g>
   <g id="patch_4">
    <path d="M 149.307544 248.368544 
L 167.159834 248.368544 
L 167.159834 250.093775 
L 149.307544 250.093775 
z
" clip-path="url(#pcec6533dca)" style="fill: #a52a2a"/>
   </g>
   <g id="patch_5">
    <path d="M 171.622907 248.368544 
L 189.475197 248.368544 
L 189.475197 250.052502 
L 171.622907 250.052502 
z
" clip-path="url(#pcec6533dca)" style="fill: #a52a2a"/>
   </g>
   <g id="patch_6">
    <path d="M 193.93827 248.368544 
L 211.79056 248.368544 
L 211.79056 250.012216 
L 193.93827 250.012216 
z
" clip-path="url(#pcec6533dca)" style="fill: #a52a2a"/>
   </g>
   <g id="patch_7">
    <path d="M 216.253633 248.368544 
L 234.105923 248.368544 
L 234.105923 249.972893 
L 216.253633 249.972893 
z
" clip-path="url(#pcec6533dca)" style="fill: #a52a2a"/>
   </g>
   <g id="patch_8">
    <path d="M 238.568996 248.368544 
L 256.421286 248.368544 
L 256.421286 249.934512 
L 238.568996 249.934512 
z
" clip-path="url(#pcec6533dca)" style="fill: #a52a2a"/>
   </g>
   <g id="patch_9">
    <path d="M 260.884359 248.368544 
L 278.736649 248.368544 
L 278.736649 249.897048 
L 260.884359 249.897048 
z
" clip-path="url(#pcec6533dca)" style="fill: #a52a2a"/>
   </g>
   <g id="patch_10">
    <path d="M 283.199722 248.368544 
L 301.052012 248.368544 
L 301.052012 249.860481 
L 283.199722 249.860481 
z
" clip-path="url(#pcec6533dca)" style="fill: #a52a2a"/>
   </g>
   <g id="patch_11">
    <path d="M 305.515085 248.368544 
L 323.367375 248.368544 
L 323.367375 249.824789 
L 305.515085 249.824789 
z
" clip-path="url(#pcec6533dca)" style="fill: #a52a2a"/>
   </g>
   <g id="patch_12">
    <path d="M 327.830447 248.368544 
L 345.682738 248.368544 
L 345.682738 249.789951 
L 327.830447 249.789951 
z
" clip-path="url(#pcec6533dca)" style="fill: #a52a2a"/>
   </g>
   <g id="patch_13">
    <path d="M 350.14581 248.368544 
L 367.998101 248.368544 
L 367.998101 249.755946 
L 350.14581 249.755946 
z
" clip-path="url(#pcec6533dca)" style="fill: #a52a2a"/>
   </g>
   <g id="patch_14">
    <path d="M 372.461173 248.368544 
L 390.313464 248.368544 
L 390.313464 249.722754 
L 372.461173 249.722754 
z
" clip-path="url(#pcec6533dca)" style="fill: #a52a2a"/>
   </g>
   <g id="patch_15">
    <path d="M 394.776536 248.368544 
L 412.628827 248.368544 
L 412.628827 249.690357 
L 394.776536 249.690357 
z
" clip-path="url(#pcec6533dca)" style="fill: #a52a2a"/>
   </g>
   <g id="patch_16">
    <path d="M 417.091899 248.368544 
L 434.94419 248.368544 
L 434.94419 249.658734 
L 417.091899 249.658734 
z
" clip-path="url(#pcec6533dca)" style="fill: #a52a2a"/>
   </g>
   <g id="patch_17">
    <path d="M 439.407262 248.368544 
L 457.259553 248.368544 
L 457.259553 249.627869 
L 439.407262 249.627869 
z
" clip-path="url(#pcec6533dca)" style="fill: #a52a2a"/>
   </g>
   <g id="patch_18">
    <path d="M 461.722625 248.368544 
L 479.574915 248.368544 
L 479.574915 249.597741 
L 461.722625 249.597741 
z
" clip-path="url(#pcec6533dca)" style="fill: #a52a2a"/>
   </g>
   <g id="patch_19">
    <path d="M 484.037988 248.368544 
L 501.890278 248.368544 
L 501.890278 249.568335 
L 484.037988 249.568335 
z
" clip-path="url(#pcec6533dca)" style="fill: #a52a2a"/>
   </g>
   <g id="patch_20">
    <path d="M 506.353351 248.368544 
L 524.205641 248.368544 
L 524.205641 249.539632 
L 506.353351 249.539632 
z
" clip-path="url(#pcec6533dca)" style="fill: #a52a2a"/>
   </g>
   <g id="patch_21">
    <path d="M 528.668714 248.368544 
L 546.521004 248.368544 
L 546.521004 249.511615 
L 528.668714 249.511615 
z
" clip-path="url(#pcec6533dca)" style="fill: #a52a2a"/>
   </g>
   <g id="patch_22">
    <path d="M 550.984077 248.368544 
L 568.836367 248.368544 
L 568.836367 249.484269 
L 550.984077 249.484269 
z
" clip-path="url(#pcec6533dca)" style="fill: #a52a2a"/>
   </g>
   <g id="patch_23">
    <path d="M 573.29944 248.368544 
L 591.15173 248.368544 
L 591.15173 249.457577 
L 573.29944 249.457577 
z
" clip-path="url(#pcec6533dca)" style="fill: #a52a2a"/>
   </g>
   <g id="patch_24">
    <path d="M 595.614803 248.368544 
L 613.467093 248.368544 
L 613.467093 249.431523 
L 595.614803 249.431523 
z
" clip-path="url(#pcec6533dca)" style="fill: #a52a2a"/>
   </g>
   <g id="patch_25">
    <path d="M 617.930166 248.368544 
L 635.782456 248.368544 
L 635.782456 249.406093 
L 617.930166 249.406093 
z
" clip-path="url(#pcec6533dca)" style="fill: #a52a2a"/>
   </g>
   <g id="patch_26">
    <path d="M 640.245529 248.368544 
L 658.097819 248.368544 
L 658.097819 249.381272 
L 640.245529 249.381272 
z
" clip-path="url(#pcec6533dca)" style="fill: #a52a2a"/>
   </g>
   <g id="patch_27">
    <path d="M 662.560891 248.368544 
L 680.413182 248.368544 
L 680.413182 249.357044 
L 662.560891 249.357044 
z
" clip-path="url(#pcec6533dca)" style="fill: #a52a2a"/>
   </g>
   <g id="patch_28">
    <path d="M 126.992181 250.13606 
L 144.844471 250.13606 
L 144.844471 270.422778 
L 126.992181 270.422778 
z
" clip-path="url(#pcec6533dca)" style="fill: #800080"/>
   </g>
   <g id="patch_29">
    <path d="M 149.307544 250.093775 
L 167.159834 250.093775 
L 167.159834 270.291192 
L 149.307544 270.291192 
z
" clip-path="url(#pcec6533dca)" style="fill: #800080"/>
   </g>
   <g id="patch_30">
    <path d="M 171.622907 250.052502 
L 189.475197 250.052502 
L 189.475197 270.161011 
L 171.622907 270.161011 
z
" clip-path="url(#pcec6533dca)" style="fill: #800080"/>
   </g>
   <g id="patch_31">
    <path d="M 193.93827 250.012216 
L 211.79056 250.012216 
L 211.79056 270.032209 
L 193.93827 270.032209 
z
" clip-path="url(#pcec6533dca)" style="fill: #800080"/>
   </g>
   <g id="patch_32">
    <path d="M 216.253633 249.972893 
L 234.105923 249.972893 
L 234.105923 269.904761 
L 216.253633 269.904761 
z
" clip-path="url(#pcec6533dca)" style="fill: #800080"/>
   </g>
   <g id="patch_33">
    <path d="M 238.568996 249.934512 
L 256.421286 249.934512 
L 256.421286 269.778641 
L 238.568996 269.778641 
z
" clip-path="url(#pcec6533dca)" style="fill: #800080"/>
   </g>
   <g id="patch_34">
    <path d="M 260.884359 249.897048 
L 278.736649 249.897048 
L 278.736649 269.653825 
L 260.884359 269.653825 
z
" clip-path="url(#pcec6533dca)" style="fill: #800080"/>
   </g>
   <g id="patch_35">
    <path d="M 283.199722 249.860481 
L 301.052012 249.860481 
L 301.052012 269.530291 
L 283.199722 269.530291 
z
" clip-path="url(#pcec6533dca)" style="fill: #800080"/>
   </g>
   <g id="patch_36">
    <path d="M 305.515085 249.824789 
L 323.367375 249.824789 
L 323.367375 269.408014 
L 305.515085 269.408014 
z
" clip-path="url(#pcec6533dca)" style="fill: #800080"/>
   </g>
   <g id="patch_37">
    <path d="M 327.830447 249.789951 
L 345.682738 249.789951 
L 345.682738 269.286972 
L 327.830447 269.286972 
z
" clip-path="url(#pcec6533dca)" style="fill: #800080"/>
   </g>
   <g id="patch_38">
    <path d="M 350.14581 249.755946 
L 367.998101 249.755946 
L 367.998101 269.167142 
L 350.14581 269.167142 
z
" clip-path="url(#pcec6533dca)" style="fill: #800080"/>
   </g>
   <g id="patch_39">
    <path d="M 372.461173 249.722754 
L 390.313464 249.722754 
L 390.313464 269.048505 
L 372.461173 269.048505 
z
" clip-path="url(#pcec6533dca)" style="fill: #800080"/>
   </g>
   <g id="patch_40">
    <path d="M 394.776536 249.690357 
L 412.628827 249.690357 
L 412.628827 268.931037 
L 394.776536 268.931037 
z
" clip-path="url(#pcec6533dca)" style="fill: #800080"/>
   </g>
   <g id="patch_41">
    <path d="M 417.091899 249.658734 
L 434.94419 249.658734 
L 434.94419 268.814719 
L 417.091899 268.814719 
z
" clip-path="url(#pcec6533dca)" style="fill: #800080"/>
   </g>
   <g id="patch_42">
    <path d="M 439.407262 249.627869 
L 457.259553 249.627869 
L 457.259553 268.69953 
L 439.407262 268.69953 
z
" clip-path="url(#pcec6533dca)" style="fill: #800080"/>
   </g>
   <g id="patch_43">
    <path d="M 461.722625 249.597741 
L 479.574915 249.597741 
L 479.574915 268.585451 
L 461.722625 268.585451 
z
" clip-path="url(#pcec6533dca)" style="fill: #800080"/>
   </g>
   <g id="patch_44">
    <path d="M 484.037988 249.568335 
L 501.890278 249.568335 
L 501.890278 268.472462 
L 484.037988 268.472462 
z
" clip-path="url(#pcec6533dca)" style="fill: #800080"/>
   </g>
   <g id="patch_45">
    <path d="M 506.353351 249.539632 
L 524.205641 249.539632 
L 524.205641 268.360544 
L 506.353351 268.360544 
z
" clip-path="url(#pcec6533dca)" style="fill: #800080"/>
   </g>
   <g id="patch_46">
    <path d="M 528.668714 249.511615 
L 546.521004 249.511615 
L 546.521004 268.24968 
L 528.668714 268.24968 
z
" clip-path="url(#pcec6533dca)" style="fill: #800080"/>
   </g>
   <g id="patch_47">
    <path d="M 550.984077 249.484269 
L 568.836367 249.484269 
L 568.836367 268.13985 
L 550.984077 268.13985 
z
" clip-path="url(#pcec6533dca)" style="fill: #800080"/>
   </g>
   <g id="patch_48">
    <path d="M 573.29944 249.457577 
L 591.15173 249.457577 
L 591.15173 268.031038 
L 573.29944 268.031038 
z
" clip-path="url(#pcec6533dca)" style="fill: #800080"/>
   </g>
   <g id="patch_49">
    <path d="M 595.614803 249.431523 
L 613.467093 249.431523 
L 613.467093 267.923226 
L 595.614803 267.923226 
z
" clip-path="url(#pcec6533dca)" style="fill: #800080"/>
   </g>
   <g id="patch_50">
    <path d="M 617.930166 249.406093 
L 635.782456 249.406093 
L 635.782456 267.816397 
L 617.930166 267.816397 
z
" clip-path="url(#pcec6533dca)" style="fill: #800080"/>
   </g>
   <g id="patch_51">
    <path d="M 640.245529 249.381272 
L 658.097819 249.381272 
L 658.097819 267.710535 
L 640.245529 267.710535 
z
" clip-path="url(#pcec6533dca)" style="fill: #800080"/>
   </g>
   <g id="patch_52">
    <path d="M 662.560891 249.357044 
L 680.413182 249.357044 
L 680.413182 267.605623 
L 662.560891 267.605623 
z
" clip-path="url(#pcec6533dca)" style="fill: #800080"/>
   </g>
   <g id="patch_53">
    <path d="M 126.992181 248.368544 
L 144.844471 248.368544 
L 144.844471 213.089416 
L 126.992181 213.089416 
z
" clip-path="url(#pcec6533dca)" style="fill: #00ffff"/>
   </g>
   <g id="patch_54">
    <path d="M 149.307544 248.368544 
L 167.159834 248.368544 
L 167.159834 213.244712 
L 149.307544 213.244712 
z
" clip-path="url(#pcec6533dca)" style="fill: #00ffff"/>
   </g>
   <g id="patch_55">
    <path d="M 171.622907 248.368544 
L 189.475197 248.368544 
L 189.475197 213.399324 
L 171.622907 213.399324 
z
" clip-path="url(#pcec6533dca)" style="fill: #00ffff"/>
   </g>
   <g id="patch_56">
    <path d="M 193.93827 248.368544 
L 211.79056 248.368544 
L 211.79056 213.553256 
L 193.93827 213.553256 
z
" clip-path="url(#pcec6533dca)" style="fill: #00ffff"/>
   </g>
   <g id="patch_57">
    <path d="M 216.253633 248.368544 
L 234.105923 248.368544 
L 234.105923 213.70651 
L 216.253633 213.70651 
z
" clip-path="url(#pcec6533dca)" style="fill: #00ffff"/>
   </g>
   <g id="patch_58">
    <path d="M 238.568996 248.368544 
L 256.421286 248.368544 
L 256.421286 213.859089 
L 238.568996 213.859089 
z
" clip-path="url(#pcec6533dca)" style="fill: #00ffff"/>
   </g>
   <g id="patch_59">
    <path d="M 260.884359 248.368544 
L 278.736649 248.368544 
L 278.736649 214.010997 
L 260.884359 214.010997 
z
" clip-path="url(#pcec6533dca)" style="fill: #00ffff"/>
   </g>
   <g id="patch_60">
    <path d="M 283.199722 248.368544 
L 301.052012 248.368544 
L 301.052012 214.162236 
L 283.199722 214.162236 
z
" clip-path="url(#pcec6533dca)" style="fill: #00ffff"/>
   </g>
   <g id="patch_61">
    <path d="M 305.515085 248.368544 
L 323.367375 248.368544 
L 323.367375 214.312809 
L 305.515085 214.312809 
z
" clip-path="url(#pcec6533dca)" style="fill: #00ffff"/>
   </g>
   <g id="patch_62">
    <path d="M 327.830447 248.368544 
L 345.682738 248.368544 
L 345.682738 214.462719 
L 327.830447 214.462719 
z
" clip-path="url(#pcec6533dca)" style="fill: #00ffff"/>
   </g>
   <g id="patch_63">
    <path d="M 350.14581 248.368544 
L 367.998101 248.368544 
L 367.998101 214.61197 
L 350.14581 214.61197 
z
" clip-path="url(#pcec6533dca)" style="fill: #00ffff"/>
   </g>
   <g id="patch_64">
    <path d="M 372.461173 248.368544 
L 390.313464 248.368544 
L 390.313464 214.760563 
L 372.461173 214.760563 
z
" clip-path="url(#pcec6533dca)" style="fill: #00ffff"/>
   </g>
   <g id="patch_65">
    <path d="M 394.776536 248.368544 
L 412.628827 248.368544 
L 412.628827 214.908503 
L 394.776536 214.908503 
z
" clip-path="url(#pcec6533dca)" style="fill: #00ffff"/>
   </g>
   <g id="patch_66">
    <path d="M 417.091899 248.368544 
L 434.94419 248.368544 
L 434.94419 215.055791 
L 417.091899 215.055791 
z
" clip-path="url(#pcec6533dca)" style="fill: #00ffff"/>
   </g>
   <g id="patch_67">
    <path d="M 439.407262 248.368544 
L 457.259553 248.368544 
L 457.259553 215.202431 
L 439.407262 215.202431 
z
" clip-path="url(#pcec6533dca)" style="fill: #00ffff"/>
   </g>
   <g id="patch_68">
    <path d="M 461.722625 248.368544 
L 479.574915 248.368544 
L 479.574915 215.348425 
L 461.722625 215.348425 
z
" clip-path="url(#pcec6533dca)" style="fill: #00ffff"/>
   </g>
   <g id="patch_69">
    <path d="M 484.037988 248.368544 
L 501.890278 248.368544 
L 501.890278 215.493777 
L 484.037988 215.493777 
z
" clip-path="url(#pcec6533dca)" style="fill: #00ffff"/>
   </g>
   <g id="patch_70">
    <path d="M 506.353351 248.368544 
L 524.205641 248.368544 
L 524.205641 215.638489 
L 506.353351 215.638489 
z
" clip-path="url(#pcec6533dca)" style="fill: #00ffff"/>
   </g>
   <g id="patch_71">
    <path d="M 528.668714 248.368544 
L 546.521004 248.368544 
L 546.521004 215.782564 
L 528.668714 215.782564 
z
" clip-path="url(#pcec6533dca)" style="fill: #00ffff"/>
   </g>
   <g id="patch_72">
    <path d="M 550.984077 248.368544 
L 568.836367 248.368544 
L 568.836367 215.926004 
L 550.984077 215.926004 
z
" clip-path="url(#pcec6533dca)" style="fill: #00ffff"/>
   </g>
   <g id="patch_73">
    <path d="M 573.29944 248.368544 
L 591.15173 248.368544 
L 591.15173 216.068814 
L 573.29944 216.068814 
z
" clip-path="url(#pcec6533dca)" style="fill: #00ffff"/>
   </g>
   <g id="patch_74">
    <path d="M 595.614803 248.368544 
L 613.467093 248.368544 
L 613.467093 216.210994 
L 595.614803 216.210994 
z
" clip-path="url(#pcec6533dca)" style="fill: #00ffff"/>
   </g>
   <g id="patch_75">
    <path d="M 617.930166 248.368544 
L 635.782456 248.368544 
L 635.782456 216.352549 
L 617.930166 216.352549 
z
" clip-path="url(#pcec6533dca)" style="fill: #00ffff"/>
   </g>
   <g id="patch_76">
    <path d="M 640.245529 248.368544 
L 658.097819 248.368544 
L 658.097819 216.493481 
L 640.245529 216.493481 
z
" clip-path="url(#pcec6533dca)" style="fill: #00ffff"/>
   </g>
   <g id="patch_77">
    <path d="M 662.560891 248.368544 
L 680.413182 248.368544 
L 680.413182 216.633792 
L 662.560891 216.633792 
z
" clip-path="url(#pcec6533dca)" style="fill: #00ffff"/>
   </g>
   <g id="patch_78">
    <path d="M 104.676818 248.368544 
L 122.529109 248.368544 
L 122.529109 357.876277 
L 104.676818 357.876277 
z
" clip-path="url(#pcec6533dca)" style="fill: #ff0000"/>
   </g>
   <g id="matplotlib.axis_1">
    <g id="xtick_1">
     <g id="line2d_1">
      <defs>
       <path id="m091f52f688" d="M 0 0 
L 0 3.5 
" style="stroke: #000000; stroke-width: 0.8"/>
      </defs>
      <g>
       <use xlink:href="#m091f52f688" x="113.602963" y="382.84" style="stroke: #000000; stroke-width: 0.8"/>
      </g>
     </g>
     <g id="text_1">
      <!-- 0 -->
      <g transform="translate(110.102963 399.56125) scale(0.14 -0.14)">
       <defs>
        <path id="TimesNewRomanPSMT-30" d="M 231 2094 
Q 231 2819 450 3342 
Q 669 3866 1031 4122 
Q 1313 4325 1613 4325 
Q 2100 4325 2488 3828 
Q 2972 3213 2972 2159 
Q 2972 1422 2759 906 
Q 2547 391 2217 158 
Q 1888 -75 1581 -75 
Q 975 -75 572 641 
Q 231 1244 231 2094 
z
M 844 2016 
Q 844 1141 1059 588 
Q 1238 122 1591 122 
Q 1759 122 1940 273 
Q 2122 425 2216 781 
Q 2359 1319 2359 2297 
Q 2359 3022 2209 3506 
Q 2097 3866 1919 4016 
Q 1791 4119 1609 4119 
Q 1397 4119 1231 3928 
Q 1006 3669 925 3112 
Q 844 2556 844 2016 
z
" transform="scale(0.015625)"/>
       </defs>
       <use xlink:href="#TimesNewRomanPSMT-30"/>
      </g>
     </g>
    </g>
    <g id="xtick_2">
     <g id="line2d_2">
      <g>
       <use xlink:href="#m091f52f688" x="135.918326" y="382.84" style="stroke: #000000; stroke-width: 0.8"/>
      </g>
     </g>
     <g id="text_2">
      <!-- 1 -->
      <g transform="translate(132.418326 399.56125) scale(0.14 -0.14)">
       <defs>
        <path id="TimesNewRomanPSMT-31" d="M 750 3822 
L 1781 4325 
L 1884 4325 
L 1884 747 
Q 1884 391 1914 303 
Q 1944 216 2037 169 
Q 2131 122 2419 116 
L 2419 0 
L 825 0 
L 825 116 
Q 1125 122 1212 167 
Q 1300 213 1334 289 
Q 1369 366 1369 747 
L 1369 3034 
Q 1369 3497 1338 3628 
Q 1316 3728 1258 3775 
Q 1200 3822 1119 3822 
Q 1003 3822 797 3725 
L 750 3822 
z
" transform="scale(0.015625)"/>
       </defs>
       <use xlink:href="#TimesNewRomanPSMT-31"/>
      </g>
     </g>
    </g>
    <g id="xtick_3">
     <g id="line2d_3">
      <g>
       <use xlink:href="#m091f52f688" x="158.233689" y="382.84" style="stroke: #000000; stroke-width: 0.8"/>
      </g>
     </g>
     <g id="text_3">
      <!-- 2 -->
      <g transform="translate(154.733689 399.56125) scale(0.14 -0.14)">
       <defs>
        <path id="TimesNewRomanPSMT-32" d="M 2934 816 
L 2638 0 
L 138 0 
L 138 116 
Q 1241 1122 1691 1759 
Q 2141 2397 2141 2925 
Q 2141 3328 1894 3587 
Q 1647 3847 1303 3847 
Q 991 3847 742 3664 
Q 494 3481 375 3128 
L 259 3128 
Q 338 3706 661 4015 
Q 984 4325 1469 4325 
Q 1984 4325 2329 3994 
Q 2675 3663 2675 3213 
Q 2675 2891 2525 2569 
Q 2294 2063 1775 1497 
Q 997 647 803 472 
L 1909 472 
Q 2247 472 2383 497 
Q 2519 522 2628 598 
Q 2738 675 2819 816 
L 2934 816 
z
" transform="scale(0.015625)"/>
       </defs>
       <use xlink:href="#TimesNewRomanPSMT-32"/>
      </g>
     </g>
    </g>
    <g id="xtick_4">
     <g id="line2d_4">
      <g>
       <use xlink:href="#m091f52f688" x="180.549052" y="382.84" style="stroke: #000000; stroke-width: 0.8"/>
      </g>
     </g>
     <g id="text_4">
      <!-- 3 -->
      <g transform="translate(177.049052 399.56125) scale(0.14 -0.14)">
       <defs>
        <path id="TimesNewRomanPSMT-33" d="M 325 3431 
Q 506 3859 782 4092 
Q 1059 4325 1472 4325 
Q 1981 4325 2253 3994 
Q 2459 3747 2459 3466 
Q 2459 3003 1878 2509 
Q 2269 2356 2469 2072 
Q 2669 1788 2669 1403 
Q 2669 853 2319 450 
Q 1863 -75 997 -75 
Q 569 -75 414 31 
Q 259 138 259 259 
Q 259 350 332 419 
Q 406 488 509 488 
Q 588 488 669 463 
Q 722 447 909 348 
Q 1097 250 1169 231 
Q 1284 197 1416 197 
Q 1734 197 1970 444 
Q 2206 691 2206 1028 
Q 2206 1275 2097 1509 
Q 2016 1684 1919 1775 
Q 1784 1900 1550 2001 
Q 1316 2103 1072 2103 
L 972 2103 
L 972 2197 
Q 1219 2228 1467 2375 
Q 1716 2522 1828 2728 
Q 1941 2934 1941 3181 
Q 1941 3503 1739 3701 
Q 1538 3900 1238 3900 
Q 753 3900 428 3381 
L 325 3431 
z
" transform="scale(0.015625)"/>
       </defs>
       <use xlink:href="#TimesNewRomanPSMT-33"/>
      </g>
     </g>
    </g>
    <g id="xtick_5">
     <g id="line2d_5">
      <g>
       <use xlink:href="#m091f52f688" x="202.864415" y="382.84" style="stroke: #000000; stroke-width: 0.8"/>
      </g>
     </g>
     <g id="text_5">
      <!-- 4 -->
      <g transform="translate(199.364415 399.56125) scale(0.14 -0.14)">
       <defs>
        <path id="TimesNewRomanPSMT-34" d="M 2978 1563 
L 2978 1119 
L 2409 1119 
L 2409 0 
L 1894 0 
L 1894 1119 
L 100 1119 
L 100 1519 
L 2066 4325 
L 2409 4325 
L 2409 1563 
L 2978 1563 
z
M 1894 1563 
L 1894 3666 
L 406 1563 
L 1894 1563 
z
" transform="scale(0.015625)"/>
       </defs>
       <use xlink:href="#TimesNewRomanPSMT-34"/>
      </g>
     </g>
    </g>
    <g id="xtick_6">
     <g id="line2d_6">
      <g>
       <use xlink:href="#m091f52f688" x="225.179778" y="382.84" style="stroke: #000000; stroke-width: 0.8"/>
      </g>
     </g>
     <g id="text_6">
      <!-- 5 -->
      <g transform="translate(221.679778 399.56125) scale(0.14 -0.14)">
       <defs>
        <path id="TimesNewRomanPSMT-35" d="M 2778 4238 
L 2534 3706 
L 1259 3706 
L 981 3138 
Q 1809 3016 2294 2522 
Q 2709 2097 2709 1522 
Q 2709 1188 2573 903 
Q 2438 619 2231 419 
Q 2025 219 1772 97 
Q 1413 -75 1034 -75 
Q 653 -75 479 54 
Q 306 184 306 341 
Q 306 428 378 495 
Q 450 563 559 563 
Q 641 563 702 538 
Q 763 513 909 409 
Q 1144 247 1384 247 
Q 1750 247 2026 523 
Q 2303 800 2303 1197 
Q 2303 1581 2056 1914 
Q 1809 2247 1375 2428 
Q 1034 2569 447 2591 
L 1259 4238 
L 2778 4238 
z
" transform="scale(0.015625)"/>
       </defs>
       <use xlink:href="#TimesNewRomanPSMT-35"/>
      </g>
     </g>
    </g>
    <g id="xtick_7">
     <g id="line2d_7">
      <g>
       <use xlink:href="#m091f52f688" x="247.495141" y="382.84" style="stroke: #000000; stroke-width: 0.8"/>
      </g>
     </g>
     <g id="text_7">
      <!-- 6 -->
      <g transform="translate(243.995141 399.56125) scale(0.14 -0.14)">
       <defs>
        <path id="TimesNewRomanPSMT-36" d="M 2869 4325 
L 2869 4209 
Q 2456 4169 2195 4045 
Q 1934 3922 1679 3669 
Q 1425 3416 1258 3105 
Q 1091 2794 978 2366 
Q 1428 2675 1881 2675 
Q 2316 2675 2634 2325 
Q 2953 1975 2953 1425 
Q 2953 894 2631 456 
Q 2244 -75 1606 -75 
Q 1172 -75 869 213 
Q 275 772 275 1663 
Q 275 2231 503 2743 
Q 731 3256 1154 3653 
Q 1578 4050 1965 4187 
Q 2353 4325 2688 4325 
L 2869 4325 
z
M 925 2138 
Q 869 1716 869 1456 
Q 869 1156 980 804 
Q 1091 453 1309 247 
Q 1469 100 1697 100 
Q 1969 100 2183 356 
Q 2397 613 2397 1088 
Q 2397 1622 2184 2012 
Q 1972 2403 1581 2403 
Q 1463 2403 1327 2353 
Q 1191 2303 925 2138 
z
" transform="scale(0.015625)"/>
       </defs>
       <use xlink:href="#TimesNewRomanPSMT-36"/>
      </g>
     </g>
    </g>
    <g id="xtick_8">
     <g id="line2d_8">
      <g>
       <use xlink:href="#m091f52f688" x="269.810504" y="382.84" style="stroke: #000000; stroke-width: 0.8"/>
      </g>
     </g>
     <g id="text_8">
      <!-- 7 -->
      <g transform="translate(266.310504 399.56125) scale(0.14 -0.14)">
       <defs>
        <path id="TimesNewRomanPSMT-37" d="M 644 4238 
L 2916 4238 
L 2916 4119 
L 1503 -88 
L 1153 -88 
L 2419 3728 
L 1253 3728 
Q 900 3728 750 3644 
Q 488 3500 328 3200 
L 238 3234 
L 644 4238 
z
" transform="scale(0.015625)"/>
       </defs>
       <use xlink:href="#TimesNewRomanPSMT-37"/>
      </g>
     </g>
    </g>
    <g id="xtick_9">
     <g id="line2d_9">
      <g>
       <use xlink:href="#m091f52f688" x="292.125867" y="382.84" style="stroke: #000000; stroke-width: 0.8"/>
      </g>
     </g>
     <g id="text_9">
      <!-- 8 -->
      <g transform="translate(288.625867 399.56125) scale(0.14 -0.14)">
       <defs>
        <path id="TimesNewRomanPSMT-38" d="M 1228 2134 
Q 725 2547 579 2797 
Q 434 3047 434 3316 
Q 434 3728 753 4026 
Q 1072 4325 1600 4325 
Q 2113 4325 2425 4047 
Q 2738 3769 2738 3413 
Q 2738 3175 2569 2928 
Q 2400 2681 1866 2347 
Q 2416 1922 2594 1678 
Q 2831 1359 2831 1006 
Q 2831 559 2490 242 
Q 2150 -75 1597 -75 
Q 994 -75 656 303 
Q 388 606 388 966 
Q 388 1247 577 1523 
Q 766 1800 1228 2134 
z
M 1719 2469 
Q 2094 2806 2194 3001 
Q 2294 3197 2294 3444 
Q 2294 3772 2109 3958 
Q 1925 4144 1606 4144 
Q 1288 4144 1088 3959 
Q 888 3775 888 3528 
Q 888 3366 970 3203 
Q 1053 3041 1206 2894 
L 1719 2469 
z
M 1375 2016 
Q 1116 1797 991 1539 
Q 866 1281 866 981 
Q 866 578 1086 336 
Q 1306 94 1647 94 
Q 1984 94 2187 284 
Q 2391 475 2391 747 
Q 2391 972 2272 1150 
Q 2050 1481 1375 2016 
z
" transform="scale(0.015625)"/>
       </defs>
       <use xlink:href="#TimesNewRomanPSMT-38"/>
      </g>
     </g>
    </g>
    <g id="xtick_10">
     <g id="line2d_10">
      <g>
       <use xlink:href="#m091f52f688" x="314.44123" y="382.84" style="stroke: #000000; stroke-width: 0.8"/>
      </g>
     </g>
     <g id="text_10">
      <!-- 9 -->
      <g transform="translate(310.94123 399.56125) scale(0.14 -0.14)">
       <defs>
        <path id="TimesNewRomanPSMT-39" d="M 338 -88 
L 338 28 
Q 744 34 1094 217 
Q 1444 400 1770 856 
Q 2097 1313 2225 1859 
Q 1734 1544 1338 1544 
Q 891 1544 572 1889 
Q 253 2234 253 2806 
Q 253 3363 572 3797 
Q 956 4325 1575 4325 
Q 2097 4325 2469 3894 
Q 2925 3359 2925 2575 
Q 2925 1869 2578 1258 
Q 2231 647 1613 244 
Q 1109 -88 516 -88 
L 338 -88 
z
M 2275 2091 
Q 2331 2497 2331 2741 
Q 2331 3044 2228 3395 
Q 2125 3747 1936 3934 
Q 1747 4122 1506 4122 
Q 1228 4122 1018 3872 
Q 809 3622 809 3128 
Q 809 2469 1088 2097 
Q 1291 1828 1588 1828 
Q 1731 1828 1928 1897 
Q 2125 1966 2275 2091 
z
" transform="scale(0.015625)"/>
       </defs>
       <use xlink:href="#TimesNewRomanPSMT-39"/>
      </g>
     </g>
    </g>
    <g id="xtick_11">
     <g id="line2d_11">
      <g>
       <use xlink:href="#m091f52f688" x="336.756593" y="382.84" style="stroke: #000000; stroke-width: 0.8"/>
      </g>
     </g>
     <g id="text_11">
      <!-- 10 -->
      <g transform="translate(329.756593 399.56125) scale(0.14 -0.14)">
       <use xlink:href="#TimesNewRomanPSMT-31"/>
       <use xlink:href="#TimesNewRomanPSMT-30" transform="translate(50 0)"/>
      </g>
     </g>
    </g>
    <g id="xtick_12">
     <g id="line2d_12">
      <g>
       <use xlink:href="#m091f52f688" x="359.071956" y="382.84" style="stroke: #000000; stroke-width: 0.8"/>
      </g>
     </g>
     <g id="text_12">
      <!-- 11 -->
      <g transform="translate(352.334456 399.56125) scale(0.14 -0.14)">
       <use xlink:href="#TimesNewRomanPSMT-31"/>
       <use xlink:href="#TimesNewRomanPSMT-31" transform="translate(46.25 0)"/>
      </g>
     </g>
    </g>
    <g id="xtick_13">
     <g id="line2d_13">
      <g>
       <use xlink:href="#m091f52f688" x="381.387319" y="382.84" style="stroke: #000000; stroke-width: 0.8"/>
      </g>
     </g>
     <g id="text_13">
      <!-- 12 -->
      <g transform="translate(374.387319 399.56125) scale(0.14 -0.14)">
       <use xlink:href="#TimesNewRomanPSMT-31"/>
       <use xlink:href="#TimesNewRomanPSMT-32" transform="translate(50 0)"/>
      </g>
     </g>
    </g>
    <g id="xtick_14">
     <g id="line2d_14">
      <g>
       <use xlink:href="#m091f52f688" x="403.702681" y="382.84" style="stroke: #000000; stroke-width: 0.8"/>
      </g>
     </g>
     <g id="text_14">
      <!-- 13 -->
      <g transform="translate(396.702681 399.56125) scale(0.14 -0.14)">
       <use xlink:href="#TimesNewRomanPSMT-31"/>
       <use xlink:href="#TimesNewRomanPSMT-33" transform="translate(50 0)"/>
      </g>
     </g>
    </g>
    <g id="xtick_15">
     <g id="line2d_15">
      <g>
       <use xlink:href="#m091f52f688" x="426.018044" y="382.84" style="stroke: #000000; stroke-width: 0.8"/>
      </g>
     </g>
     <g id="text_15">
      <!-- 14 -->
      <g transform="translate(419.018044 399.56125) scale(0.14 -0.14)">
       <use xlink:href="#TimesNewRomanPSMT-31"/>
       <use xlink:href="#TimesNewRomanPSMT-34" transform="translate(50 0)"/>
      </g>
     </g>
    </g>
    <g id="xtick_16">
     <g id="line2d_16">
      <g>
       <use xlink:href="#m091f52f688" x="448.333407" y="382.84" style="stroke: #000000; stroke-width: 0.8"/>
      </g>
     </g>
     <g id="text_16">
      <!-- 15 -->
      <g transform="translate(441.333407 399.56125) scale(0.14 -0.14)">
       <use xlink:href="#TimesNewRomanPSMT-31"/>
       <use xlink:href="#TimesNewRomanPSMT-35" transform="translate(50 0)"/>
      </g>
     </g>
    </g>
    <g id="xtick_17">
     <g id="line2d_17">
      <g>
       <use xlink:href="#m091f52f688" x="470.64877" y="382.84" style="stroke: #000000; stroke-width: 0.8"/>
      </g>
     </g>
     <g id="text_17">
      <!-- 16 -->
      <g transform="translate(463.64877 399.56125) scale(0.14 -0.14)">
       <use xlink:href="#TimesNewRomanPSMT-31"/>
       <use xlink:href="#TimesNewRomanPSMT-36" transform="translate(50 0)"/>
      </g>
     </g>
    </g>
    <g id="xtick_18">
     <g id="line2d_18">
      <g>
       <use xlink:href="#m091f52f688" x="492.964133" y="382.84" style="stroke: #000000; stroke-width: 0.8"/>
      </g>
     </g>
     <g id="text_18">
      <!-- 17 -->
      <g transform="translate(485.964133 399.56125) scale(0.14 -0.14)">
       <use xlink:href="#TimesNewRomanPSMT-31"/>
       <use xlink:href="#TimesNewRomanPSMT-37" transform="translate(50 0)"/>
      </g>
     </g>
    </g>
    <g id="xtick_19">
     <g id="line2d_19">
      <g>
       <use xlink:href="#m091f52f688" x="515.279496" y="382.84" style="stroke: #000000; stroke-width: 0.8"/>
      </g>
     </g>
     <g id="text_19">
      <!-- 18 -->
      <g transform="translate(508.279496 399.56125) scale(0.14 -0.14)">
       <use xlink:href="#TimesNewRomanPSMT-31"/>
       <use xlink:href="#TimesNewRomanPSMT-38" transform="translate(50 0)"/>
      </g>
     </g>
    </g>
    <g id="xtick_20">
     <g id="line2d_20">
      <g>
       <use xlink:href="#m091f52f688" x="537.594859" y="382.84" style="stroke: #000000; stroke-width: 0.8"/>
      </g>
     </g>
     <g id="text_20">
      <!-- 19 -->
      <g transform="translate(530.594859 399.56125) scale(0.14 -0.14)">
       <use xlink:href="#TimesNewRomanPSMT-31"/>
       <use xlink:href="#TimesNewRomanPSMT-39" transform="translate(50 0)"/>
      </g>
     </g>
    </g>
    <g id="xtick_21">
     <g id="line2d_21">
      <g>
       <use xlink:href="#m091f52f688" x="559.910222" y="382.84" style="stroke: #000000; stroke-width: 0.8"/>
      </g>
     </g>
     <g id="text_21">
      <!-- 20 -->
      <g transform="translate(552.910222 399.56125) scale(0.14 -0.14)">
       <use xlink:href="#TimesNewRomanPSMT-32"/>
       <use xlink:href="#TimesNewRomanPSMT-30" transform="translate(50 0)"/>
      </g>
     </g>
    </g>
    <g id="xtick_22">
     <g id="line2d_22">
      <g>
       <use xlink:href="#m091f52f688" x="582.225585" y="382.84" style="stroke: #000000; stroke-width: 0.8"/>
      </g>
     </g>
     <g id="text_22">
      <!-- 21 -->
      <g transform="translate(575.225585 399.56125) scale(0.14 -0.14)">
       <use xlink:href="#TimesNewRomanPSMT-32"/>
       <use xlink:href="#TimesNewRomanPSMT-31" transform="translate(50 0)"/>
      </g>
     </g>
    </g>
    <g id="xtick_23">
     <g id="line2d_23">
      <g>
       <use xlink:href="#m091f52f688" x="604.540948" y="382.84" style="stroke: #000000; stroke-width: 0.8"/>
      </g>
     </g>
     <g id="text_23">
      <!-- 22 -->
      <g transform="translate(597.540948 399.56125) scale(0.14 -0.14)">
       <use xlink:href="#TimesNewRomanPSMT-32"/>
       <use xlink:href="#TimesNewRomanPSMT-32" transform="translate(50 0)"/>
      </g>
     </g>
    </g>
    <g id="xtick_24">
     <g id="line2d_24">
      <g>
       <use xlink:href="#m091f52f688" x="626.856311" y="382.84" style="stroke: #000000; stroke-width: 0.8"/>
      </g>
     </g>
     <g id="text_24">
      <!-- 23 -->
      <g transform="translate(619.856311 399.56125) scale(0.14 -0.14)">
       <use xlink:href="#TimesNewRomanPSMT-32"/>
       <use xlink:href="#TimesNewRomanPSMT-33" transform="translate(50 0)"/>
      </g>
     </g>
    </g>
    <g id="xtick_25">
     <g id="line2d_25">
      <g>
       <use xlink:href="#m091f52f688" x="649.171674" y="382.84" style="stroke: #000000; stroke-width: 0.8"/>
      </g>
     </g>
     <g id="text_25">
      <!-- 24 -->
      <g transform="translate(642.171674 399.56125) scale(0.14 -0.14)">
       <use xlink:href="#TimesNewRomanPSMT-32"/>
       <use xlink:href="#TimesNewRomanPSMT-34" transform="translate(50 0)"/>
      </g>
     </g>
    </g>
    <g id="xtick_26">
     <g id="line2d_26">
      <g>
       <use xlink:href="#m091f52f688" x="671.487037" y="382.84" style="stroke: #000000; stroke-width: 0.8"/>
      </g>
     </g>
     <g id="text_26">
      <!-- 25 -->
      <g transform="translate(664.487037 399.56125) scale(0.14 -0.14)">
       <use xlink:href="#TimesNewRomanPSMT-32"/>
       <use xlink:href="#TimesNewRomanPSMT-35" transform="translate(50 0)"/>
      </g>
     </g>
    </g>
    <g id="text_27">
     <!-- Year -->
     <g transform="translate(377.80125 417.665937) scale(0.16 -0.16)">
      <defs>
       <path id="TimesNewRomanPSMT-59" d="M 3050 4238 
L 4528 4238 
L 4528 4122 
L 4447 4122 
Q 4366 4122 4209 4050 
Q 4053 3978 3925 3843 
Q 3797 3709 3609 3406 
L 2588 1797 
L 2588 734 
Q 2588 344 2675 247 
Q 2794 116 3050 116 
L 3188 116 
L 3188 0 
L 1388 0 
L 1388 116 
L 1538 116 
Q 1806 116 1919 278 
Q 1988 378 1988 734 
L 1988 1738 
L 825 3513 
Q 619 3825 545 3903 
Q 472 3981 241 4091 
Q 178 4122 59 4122 
L 59 4238 
L 1872 4238 
L 1872 4122 
L 1778 4122 
Q 1631 4122 1507 4053 
Q 1384 3984 1384 3847 
Q 1384 3734 1575 3441 
L 2459 2075 
L 3291 3381 
Q 3478 3675 3478 3819 
Q 3478 3906 3433 3975 
Q 3388 4044 3303 4083 
Q 3219 4122 3050 4122 
L 3050 4238 
z
" transform="scale(0.015625)"/>
       <path id="TimesNewRomanPSMT-65" d="M 681 1784 
Q 678 1147 991 784 
Q 1303 422 1725 422 
Q 2006 422 2214 576 
Q 2422 731 2563 1106 
L 2659 1044 
Q 2594 616 2278 264 
Q 1963 -88 1488 -88 
Q 972 -88 605 314 
Q 238 716 238 1394 
Q 238 2128 614 2539 
Q 991 2950 1559 2950 
Q 2041 2950 2350 2633 
Q 2659 2316 2659 1784 
L 681 1784 
z
M 681 1966 
L 2006 1966 
Q 1991 2241 1941 2353 
Q 1863 2528 1708 2628 
Q 1553 2728 1384 2728 
Q 1125 2728 920 2526 
Q 716 2325 681 1966 
z
" transform="scale(0.015625)"/>
       <path id="TimesNewRomanPSMT-61" d="M 1822 413 
Q 1381 72 1269 19 
Q 1100 -59 909 -59 
Q 613 -59 420 144 
Q 228 347 228 678 
Q 228 888 322 1041 
Q 450 1253 767 1440 
Q 1084 1628 1822 1897 
L 1822 2009 
Q 1822 2438 1686 2597 
Q 1550 2756 1291 2756 
Q 1094 2756 978 2650 
Q 859 2544 859 2406 
L 866 2225 
Q 866 2081 792 2003 
Q 719 1925 600 1925 
Q 484 1925 411 2006 
Q 338 2088 338 2228 
Q 338 2497 613 2722 
Q 888 2947 1384 2947 
Q 1766 2947 2009 2819 
Q 2194 2722 2281 2516 
Q 2338 2381 2338 1966 
L 2338 994 
Q 2338 584 2353 492 
Q 2369 400 2405 369 
Q 2441 338 2488 338 
Q 2538 338 2575 359 
Q 2641 400 2828 588 
L 2828 413 
Q 2478 -56 2159 -56 
Q 2006 -56 1915 50 
Q 1825 156 1822 413 
z
M 1822 616 
L 1822 1706 
Q 1350 1519 1213 1441 
Q 966 1303 859 1153 
Q 753 1003 753 825 
Q 753 600 887 451 
Q 1022 303 1197 303 
Q 1434 303 1822 616 
z
" transform="scale(0.015625)"/>
       <path id="TimesNewRomanPSMT-72" d="M 1038 2947 
L 1038 2303 
Q 1397 2947 1775 2947 
Q 1947 2947 2059 2842 
Q 2172 2738 2172 2600 
Q 2172 2478 2090 2393 
Q 2009 2309 1897 2309 
Q 1788 2309 1652 2417 
Q 1516 2525 1450 2525 
Q 1394 2525 1328 2463 
Q 1188 2334 1038 2041 
L 1038 669 
Q 1038 431 1097 309 
Q 1138 225 1241 169 
Q 1344 113 1538 113 
L 1538 0 
L 72 0 
L 72 113 
Q 291 113 397 181 
Q 475 231 506 341 
Q 522 394 522 644 
L 522 1753 
Q 522 2253 501 2348 
Q 481 2444 426 2487 
Q 372 2531 291 2531 
Q 194 2531 72 2484 
L 41 2597 
L 906 2947 
L 1038 2947 
z
" transform="scale(0.015625)"/>
      </defs>
      <use xlink:href="#TimesNewRomanPSMT-59"/>
      <use xlink:href="#TimesNewRomanPSMT-65" transform="translate(62.216797 0)"/>
      <use xlink:href="#TimesNewRomanPSMT-61" transform="translate(106.601562 0)"/>
      <use xlink:href="#TimesNewRomanPSMT-72" transform="translate(150.986328 0)"/>
     </g>
    </g>
   </g>
   <g id="matplotlib.axis_2">
    <g id="ytick_1">
     <g id="line2d_27">
      <defs>
       <path id="mbc12c2564d" d="M 0 0 
L -3.5 0 
" style="stroke: #000000; stroke-width: 0.8"/>
      </defs>
      <g>
       <use xlink:href="#mbc12c2564d" x="75.89" y="340.130866" style="stroke: #000000; stroke-width: 0.8"/>
      </g>
     </g>
     <g id="text_28">
      <!-- -8,000 -->
      <g transform="translate(32.728437 344.991491) scale(0.14 -0.14)">
       <defs>
        <path id="TimesNewRomanPSMT-2d" d="M 259 1672 
L 1875 1672 
L 1875 1200 
L 259 1200 
L 259 1672 
z
" transform="scale(0.015625)"/>
        <path id="TimesNewRomanPSMT-2c" d="M 344 -1066 
L 344 -928 
Q 666 -822 842 -598 
Q 1019 -375 1019 -125 
Q 1019 -66 991 -25 
Q 969 3 947 3 
Q 913 3 797 -59 
Q 741 -88 678 -88 
Q 525 -88 434 3 
Q 344 94 344 253 
Q 344 406 461 515 
Q 578 625 747 625 
Q 953 625 1114 445 
Q 1275 266 1275 -31 
Q 1275 -353 1051 -629 
Q 828 -906 344 -1066 
z
" transform="scale(0.015625)"/>
       </defs>
       <use xlink:href="#TimesNewRomanPSMT-2d"/>
       <use xlink:href="#TimesNewRomanPSMT-38" transform="translate(33.300781 0)"/>
       <use xlink:href="#TimesNewRomanPSMT-2c" transform="translate(83.300781 0)"/>
       <use xlink:href="#TimesNewRomanPSMT-30" transform="translate(108.300781 0)"/>
       <use xlink:href="#TimesNewRomanPSMT-30" transform="translate(158.300781 0)"/>
       <use xlink:href="#TimesNewRomanPSMT-30" transform="translate(208.300781 0)"/>
      </g>
     </g>
    </g>
    <g id="ytick_2">
     <g id="line2d_28">
      <g>
       <use xlink:href="#mbc12c2564d" x="75.89" y="294.249705" style="stroke: #000000; stroke-width: 0.8"/>
      </g>
     </g>
     <g id="text_29">
      <!-- -4,000 -->
      <g transform="translate(32.728437 299.11033) scale(0.14 -0.14)">
       <use xlink:href="#TimesNewRomanPSMT-2d"/>
       <use xlink:href="#TimesNewRomanPSMT-34" transform="translate(33.300781 0)"/>
       <use xlink:href="#TimesNewRomanPSMT-2c" transform="translate(83.300781 0)"/>
       <use xlink:href="#TimesNewRomanPSMT-30" transform="translate(108.300781 0)"/>
       <use xlink:href="#TimesNewRomanPSMT-30" transform="translate(158.300781 0)"/>
       <use xlink:href="#TimesNewRomanPSMT-30" transform="translate(208.300781 0)"/>
      </g>
     </g>
    </g>
    <g id="ytick_3">
     <g id="line2d_29">
      <g>
       <use xlink:href="#mbc12c2564d" x="75.89" y="248.368544" style="stroke: #000000; stroke-width: 0.8"/>
      </g>
     </g>
     <g id="text_30">
      <!-- 0 -->
      <g transform="translate(61.89 253.229169) scale(0.14 -0.14)">
       <use xlink:href="#TimesNewRomanPSMT-30"/>
      </g>
     </g>
    </g>
    <g id="ytick_4">
     <g id="line2d_30">
      <g>
       <use xlink:href="#mbc12c2564d" x="75.89" y="202.487383" style="stroke: #000000; stroke-width: 0.8"/>
      </g>
     </g>
     <g id="text_31">
      <!-- 4,000 -->
      <g transform="translate(37.39 207.348008) scale(0.14 -0.14)">
       <use xlink:href="#TimesNewRomanPSMT-34"/>
       <use xlink:href="#TimesNewRomanPSMT-2c" transform="translate(50 0)"/>
       <use xlink:href="#TimesNewRomanPSMT-30" transform="translate(75 0)"/>
       <use xlink:href="#TimesNewRomanPSMT-30" transform="translate(125 0)"/>
       <use xlink:href="#TimesNewRomanPSMT-30" transform="translate(175 0)"/>
      </g>
     </g>
    </g>
    <g id="ytick_5">
     <g id="line2d_31">
      <g>
       <use xlink:href="#mbc12c2564d" x="75.89" y="156.606222" style="stroke: #000000; stroke-width: 0.8"/>
      </g>
     </g>
     <g id="text_32">
      <!-- 8,000 -->
      <g transform="translate(37.39 161.466847) scale(0.14 -0.14)">
       <use xlink:href="#TimesNewRomanPSMT-38"/>
       <use xlink:href="#TimesNewRomanPSMT-2c" transform="translate(50 0)"/>
       <use xlink:href="#TimesNewRomanPSMT-30" transform="translate(75 0)"/>
       <use xlink:href="#TimesNewRomanPSMT-30" transform="translate(125 0)"/>
       <use xlink:href="#TimesNewRomanPSMT-30" transform="translate(175 0)"/>
      </g>
     </g>
    </g>
    <g id="ytick_6">
     <g id="line2d_32">
      <g>
       <use xlink:href="#mbc12c2564d" x="75.89" y="110.72506" style="stroke: #000000; stroke-width: 0.8"/>
      </g>
     </g>
     <g id="text_33">
      <!-- 12,000 -->
      <g transform="translate(30.39 115.585685) scale(0.14 -0.14)">
       <use xlink:href="#TimesNewRomanPSMT-31"/>
       <use xlink:href="#TimesNewRomanPSMT-32" transform="translate(50 0)"/>
       <use xlink:href="#TimesNewRomanPSMT-2c" transform="translate(100 0)"/>
       <use xlink:href="#TimesNewRomanPSMT-30" transform="translate(125 0)"/>
       <use xlink:href="#TimesNewRomanPSMT-30" transform="translate(175 0)"/>
       <use xlink:href="#TimesNewRomanPSMT-30" transform="translate(225 0)"/>
      </g>
     </g>
    </g>
    <g id="ytick_7">
     <g id="line2d_33">
      <g>
       <use xlink:href="#mbc12c2564d" x="75.89" y="64.843899" style="stroke: #000000; stroke-width: 0.8"/>
      </g>
     </g>
     <g id="text_34">
      <!-- 16,000 -->
      <g transform="translate(30.39 69.704524) scale(0.14 -0.14)">
       <use xlink:href="#TimesNewRomanPSMT-31"/>
       <use xlink:href="#TimesNewRomanPSMT-36" transform="translate(50 0)"/>
       <use xlink:href="#TimesNewRomanPSMT-2c" transform="translate(100 0)"/>
       <use xlink:href="#TimesNewRomanPSMT-30" transform="translate(125 0)"/>
       <use xlink:href="#TimesNewRomanPSMT-30" transform="translate(175 0)"/>
       <use xlink:href="#TimesNewRomanPSMT-30" transform="translate(225 0)"/>
      </g>
     </g>
    </g>
    <g id="ytick_8">
     <g id="line2d_34">
      <g>
       <use xlink:href="#mbc12c2564d" x="75.89" y="18.962738" style="stroke: #000000; stroke-width: 0.8"/>
      </g>
     </g>
     <g id="text_35">
      <!-- 20,000 -->
      <g transform="translate(30.39 23.823363) scale(0.14 -0.14)">
       <use xlink:href="#TimesNewRomanPSMT-32"/>
       <use xlink:href="#TimesNewRomanPSMT-30" transform="translate(50 0)"/>
       <use xlink:href="#TimesNewRomanPSMT-2c" transform="translate(100 0)"/>
       <use xlink:href="#TimesNewRomanPSMT-30" transform="translate(125 0)"/>
       <use xlink:href="#TimesNewRomanPSMT-30" transform="translate(175 0)"/>
       <use xlink:href="#TimesNewRomanPSMT-30" transform="translate(225 0)"/>
      </g>
     </g>
    </g>
    <g id="text_36">
     <!-- Cash Flow [$] -->
     <g transform="translate(22.9675 242.5975) rotate(-90) scale(0.16 -0.16)">
      <defs>
       <path id="TimesNewRomanPSMT-43" d="M 3853 4334 
L 3950 2894 
L 3853 2894 
Q 3659 3541 3300 3825 
Q 2941 4109 2438 4109 
Q 2016 4109 1675 3895 
Q 1334 3681 1139 3212 
Q 944 2744 944 2047 
Q 944 1472 1128 1050 
Q 1313 628 1683 403 
Q 2053 178 2528 178 
Q 2941 178 3256 354 
Q 3572 531 3950 1056 
L 4047 994 
Q 3728 428 3303 165 
Q 2878 -97 2294 -97 
Q 1241 -97 663 684 
Q 231 1266 231 2053 
Q 231 2688 515 3219 
Q 800 3750 1298 4042 
Q 1797 4334 2388 4334 
Q 2847 4334 3294 4109 
Q 3425 4041 3481 4041 
Q 3566 4041 3628 4100 
Q 3709 4184 3744 4334 
L 3853 4334 
z
" transform="scale(0.015625)"/>
       <path id="TimesNewRomanPSMT-73" d="M 2050 2947 
L 2050 1972 
L 1947 1972 
Q 1828 2431 1642 2597 
Q 1456 2763 1169 2763 
Q 950 2763 815 2647 
Q 681 2531 681 2391 
Q 681 2216 781 2091 
Q 878 1963 1175 1819 
L 1631 1597 
Q 2266 1288 2266 781 
Q 2266 391 1970 151 
Q 1675 -88 1309 -88 
Q 1047 -88 709 6 
Q 606 38 541 38 
Q 469 38 428 -44 
L 325 -44 
L 325 978 
L 428 978 
Q 516 541 762 319 
Q 1009 97 1316 97 
Q 1531 97 1667 223 
Q 1803 350 1803 528 
Q 1803 744 1651 891 
Q 1500 1038 1047 1263 
Q 594 1488 453 1669 
Q 313 1847 313 2119 
Q 313 2472 555 2709 
Q 797 2947 1181 2947 
Q 1350 2947 1591 2875 
Q 1750 2828 1803 2828 
Q 1853 2828 1881 2850 
Q 1909 2872 1947 2947 
L 2050 2947 
z
" transform="scale(0.015625)"/>
       <path id="TimesNewRomanPSMT-68" d="M 1041 4444 
L 1041 2350 
Q 1388 2731 1591 2839 
Q 1794 2947 1997 2947 
Q 2241 2947 2416 2812 
Q 2591 2678 2675 2391 
Q 2734 2191 2734 1659 
L 2734 647 
Q 2734 375 2778 275 
Q 2809 200 2884 156 
Q 2959 113 3159 113 
L 3159 0 
L 1753 0 
L 1753 113 
L 1819 113 
Q 2019 113 2097 173 
Q 2175 234 2206 353 
Q 2216 403 2216 647 
L 2216 1659 
Q 2216 2128 2167 2275 
Q 2119 2422 2012 2495 
Q 1906 2569 1756 2569 
Q 1603 2569 1437 2487 
Q 1272 2406 1041 2159 
L 1041 647 
Q 1041 353 1073 281 
Q 1106 209 1195 161 
Q 1284 113 1503 113 
L 1503 0 
L 84 0 
L 84 113 
Q 275 113 384 172 
Q 447 203 484 290 
Q 522 378 522 647 
L 522 3238 
Q 522 3728 498 3840 
Q 475 3953 426 3993 
Q 378 4034 297 4034 
Q 231 4034 84 3984 
L 41 4094 
L 897 4444 
L 1041 4444 
z
" transform="scale(0.015625)"/>
       <path id="TimesNewRomanPSMT-20" transform="scale(0.015625)"/>
       <path id="TimesNewRomanPSMT-46" d="M 1309 4006 
L 1309 2341 
L 2081 2341 
Q 2347 2341 2470 2458 
Q 2594 2575 2634 2922 
L 2750 2922 
L 2750 1488 
L 2634 1488 
Q 2631 1734 2570 1850 
Q 2509 1966 2401 2023 
Q 2294 2081 2081 2081 
L 1309 2081 
L 1309 750 
Q 1309 428 1350 325 
Q 1381 247 1481 191 
Q 1619 116 1769 116 
L 1922 116 
L 1922 0 
L 103 0 
L 103 116 
L 253 116 
Q 516 116 634 269 
Q 709 369 709 750 
L 709 3488 
Q 709 3809 669 3913 
Q 638 3991 541 4047 
Q 406 4122 253 4122 
L 103 4122 
L 103 4238 
L 3256 4238 
L 3297 3306 
L 3188 3306 
Q 3106 3603 2998 3742 
Q 2891 3881 2733 3943 
Q 2575 4006 2244 4006 
L 1309 4006 
z
" transform="scale(0.015625)"/>
       <path id="TimesNewRomanPSMT-6c" d="M 1184 4444 
L 1184 647 
Q 1184 378 1223 290 
Q 1263 203 1344 158 
Q 1425 113 1647 113 
L 1647 0 
L 244 0 
L 244 113 
Q 441 113 512 153 
Q 584 194 625 287 
Q 666 381 666 647 
L 666 3247 
Q 666 3731 644 3842 
Q 622 3953 573 3993 
Q 525 4034 450 4034 
Q 369 4034 244 3984 
L 191 4094 
L 1044 4444 
L 1184 4444 
z
" transform="scale(0.015625)"/>
       <path id="TimesNewRomanPSMT-6f" d="M 1600 2947 
Q 2250 2947 2644 2453 
Q 2978 2031 2978 1484 
Q 2978 1100 2793 706 
Q 2609 313 2286 112 
Q 1963 -88 1566 -88 
Q 919 -88 538 428 
Q 216 863 216 1403 
Q 216 1797 411 2186 
Q 606 2575 925 2761 
Q 1244 2947 1600 2947 
z
M 1503 2744 
Q 1338 2744 1170 2645 
Q 1003 2547 900 2300 
Q 797 2053 797 1666 
Q 797 1041 1045 587 
Q 1294 134 1700 134 
Q 2003 134 2200 384 
Q 2397 634 2397 1244 
Q 2397 2006 2069 2444 
Q 1847 2744 1503 2744 
z
" transform="scale(0.015625)"/>
       <path id="TimesNewRomanPSMT-77" d="M 41 2863 
L 1241 2863 
L 1241 2747 
Q 1075 2734 1023 2687 
Q 972 2641 972 2553 
Q 972 2456 1025 2319 
L 1638 672 
L 2253 2013 
L 2091 2434 
Q 2016 2622 1894 2694 
Q 1825 2738 1638 2747 
L 1638 2863 
L 3000 2863 
L 3000 2747 
Q 2775 2738 2681 2666 
Q 2619 2616 2619 2506 
Q 2619 2444 2644 2378 
L 3294 734 
L 3897 2319 
Q 3959 2488 3959 2588 
Q 3959 2647 3898 2694 
Q 3838 2741 3659 2747 
L 3659 2863 
L 4563 2863 
L 4563 2747 
Q 4291 2706 4163 2378 
L 3206 -88 
L 3078 -88 
L 2363 1741 
L 1528 -88 
L 1413 -88 
L 494 2319 
Q 403 2547 315 2626 
Q 228 2706 41 2747 
L 41 2863 
z
" transform="scale(0.015625)"/>
       <path id="TimesNewRomanPSMT-5b" d="M 1900 -1269 
L 525 -1269 
L 525 4334 
L 1900 4334 
L 1900 4088 
L 994 4088 
L 994 -1025 
L 1900 -1025 
L 1900 -1269 
z
" transform="scale(0.015625)"/>
       <path id="TimesNewRomanPSMT-24" d="M 338 1044 
L 475 1044 
Q 509 616 743 387 
Q 978 159 1444 116 
L 1444 1941 
Q 741 2375 506 2709 
Q 341 2947 341 3288 
Q 341 3672 627 3959 
Q 913 4247 1444 4306 
L 1444 4594 
L 1644 4594 
L 1644 4306 
Q 1900 4291 2075 4247 
Q 2166 4225 2675 4031 
L 2675 3097 
L 2553 3097 
Q 2513 3594 2295 3823 
Q 2078 4053 1644 4097 
L 1644 2509 
Q 2431 1959 2654 1698 
Q 2878 1438 2878 1050 
Q 2878 619 2551 290 
Q 2225 -38 1644 -88 
L 1644 -488 
L 1444 -488 
L 1444 -88 
Q 1150 -75 897 -20 
Q 644 34 338 159 
L 338 1044 
z
M 1444 2641 
L 1444 4094 
Q 1131 4056 979 3895 
Q 828 3734 828 3491 
Q 828 3263 965 3064 
Q 1103 2866 1444 2641 
z
M 1644 116 
Q 1878 156 2003 231 
Q 2178 341 2279 517 
Q 2381 694 2381 894 
Q 2381 1100 2257 1284 
Q 2134 1469 1644 1806 
L 1644 116 
z
" transform="scale(0.015625)"/>
       <path id="TimesNewRomanPSMT-5d" d="M 234 4334 
L 1609 4334 
L 1609 -1272 
L 234 -1272 
L 234 -1025 
L 1141 -1025 
L 1141 4088 
L 234 4088 
L 234 4334 
z
" transform="scale(0.015625)"/>
      </defs>
      <use xlink:href="#TimesNewRomanPSMT-43"/>
      <use xlink:href="#TimesNewRomanPSMT-61" transform="translate(66.699219 0)"/>
      <use xlink:href="#TimesNewRomanPSMT-73" transform="translate(111.083984 0)"/>
      <use xlink:href="#TimesNewRomanPSMT-68" transform="translate(150 0)"/>
      <use xlink:href="#TimesNewRomanPSMT-20" transform="translate(200 0)"/>
      <use xlink:href="#TimesNewRomanPSMT-46" transform="translate(225 0)"/>
      <use xlink:href="#TimesNewRomanPSMT-6c" transform="translate(280.615234 0)"/>
      <use xlink:href="#TimesNewRomanPSMT-6f" transform="translate(308.398438 0)"/>
      <use xlink:href="#TimesNewRomanPSMT-77" transform="translate(358.398438 0)"/>
      <use xlink:href="#TimesNewRomanPSMT-20" transform="translate(430.615234 0)"/>
      <use xlink:href="#TimesNewRomanPSMT-5b" transform="translate(455.615234 0)"/>
      <use xlink:href="#TimesNewRomanPSMT-24" transform="translate(488.916016 0)"/>
      <use xlink:href="#TimesNewRomanPSMT-5d" transform="translate(538.916016 0)"/>
     </g>
    </g>
   </g>
   <g id="line2d_35">
    <path d="M 113.602963 357.876277 
L 135.918326 344.651383 
L 158.233689 331.4502 
L 180.549052 318.273447 
L 202.864415 305.121825 
L 225.179778 291.996007 
L 247.495141 278.896649 
L 269.810504 265.824383 
L 292.125867 252.779821 
L 314.44123 239.763556 
L 336.756593 226.776159 
L 359.071956 213.818183 
L 381.387319 200.890163 
L 403.702681 187.992614 
L 426.018044 175.126036 
L 448.333407 162.290909 
L 470.64877 149.487697 
L 492.964133 136.716847 
L 515.279496 123.978793 
L 537.594859 111.273948 
L 559.910222 98.602715 
L 582.225585 85.965479 
L 604.540948 73.362611 
L 626.856311 60.794469 
L 649.171674 48.261396 
L 671.487037 35.763723 
" clip-path="url(#pcec6533dca)" style="fill: none; stroke: #000000; stroke-width: 1.5; stroke-linecap: square"/>
    <defs>
     <path id="mf89dead17e" d="M 0 3 
C 0.795609 3 1.55874 2.683901 2.12132 2.12132 
C 2.683901 1.55874 3 0.795609 3 0 
C 3 -0.795609 2.683901 -1.55874 2.12132 -2.12132 
C 1.55874 -2.683901 0.795609 -3 0 -3 
C -0.795609 -3 -1.55874 -2.683901 -2.12132 -2.12132 
C -2.683901 -1.55874 -3 -0.795609 -3 0 
C -3 0.795609 -2.683901 1.55874 -2.12132 2.12132 
C -1.55874 2.683901 -0.795609 3 0 3 
z
" style="stroke: #000000"/>
    </defs>
    <g clip-path="url(#pcec6533dca)">
     <use xlink:href="#mf89dead17e" x="113.602963" y="357.876277" style="stroke: #000000"/>
     <use xlink:href="#mf89dead17e" x="135.918326" y="344.651383" style="stroke: #000000"/>
     <use xlink:href="#mf89dead17e" x="158.233689" y="331.4502" style="stroke: #000000"/>
     <use xlink:href="#mf89dead17e" x="180.549052" y="318.273447" style="stroke: #000000"/>
     <use xlink:href="#mf89dead17e" x="202.864415" y="305.121825" style="stroke: #000000"/>
     <use xlink:href="#mf89dead17e" x="225.179778" y="291.996007" style="stroke: #000000"/>
     <use xlink:href="#mf89dead17e" x="247.495141" y="278.896649" style="stroke: #000000"/>
     <use xlink:href="#mf89dead17e" x="269.810504" y="265.824383" style="stroke: #000000"/>
     <use xlink:href="#mf89dead17e" x="292.125867" y="252.779821" style="stroke: #000000"/>
     <use xlink:href="#mf89dead17e" x="314.44123" y="239.763556" style="stroke: #000000"/>
     <use xlink:href="#mf89dead17e" x="336.756593" y="226.776159" style="stroke: #000000"/>
     <use xlink:href="#mf89dead17e" x="359.071956" y="213.818183" style="stroke: #000000"/>
     <use xlink:href="#mf89dead17e" x="381.387319" y="200.890163" style="stroke: #000000"/>
     <use xlink:href="#mf89dead17e" x="403.702681" y="187.992614" style="stroke: #000000"/>
     <use xlink:href="#mf89dead17e" x="426.018044" y="175.126036" style="stroke: #000000"/>
     <use xlink:href="#mf89dead17e" x="448.333407" y="162.290909" style="stroke: #000000"/>
     <use xlink:href="#mf89dead17e" x="470.64877" y="149.487697" style="stroke: #000000"/>
     <use xlink:href="#mf89dead17e" x="492.964133" y="136.716847" style="stroke: #000000"/>
     <use xlink:href="#mf89dead17e" x="515.279496" y="123.978793" style="stroke: #000000"/>
     <use xlink:href="#mf89dead17e" x="537.594859" y="111.273948" style="stroke: #000000"/>
     <use xlink:href="#mf89dead17e" x="559.910222" y="98.602715" style="stroke: #000000"/>
     <use xlink:href="#mf89dead17e" x="582.225585" y="85.965479" style="stroke: #000000"/>
     <use xlink:href="#mf89dead17e" x="604.540948" y="73.362611" style="stroke: #000000"/>
     <use xlink:href="#mf89dead17e" x="626.856311" y="60.794469" style="stroke: #000000"/>
     <use xlink:href="#mf89dead17e" x="649.171674" y="48.261396" style="stroke: #000000"/>
     <use xlink:href="#mf89dead17e" x="671.487037" y="35.763723" style="stroke: #000000"/>
    </g>
   </g>
   <g id="line2d_36">
    <path d="M 75.89 248.368544 
L 709.2 248.368544 
" clip-path="url(#pcec6533dca)" style="fill: none; stroke: #000000; stroke-width: 0.8; stroke-linecap: square"/>
   </g>
   <g id="patch_79">
    <path d="M 75.89 382.84 
L 75.89 10.8 
" style="fill: none; stroke: #000000; stroke-width: 0.8; stroke-linejoin: miter; stroke-linecap: square"/>
   </g>
   <g id="patch_80">
    <path d="M 709.2 382.84 
L 709.2 10.8 
" style="fill: none; stroke: #000000; stroke-width: 0.8; stroke-linejoin: miter; stroke-linecap: square"/>
   </g>
   <g id="patch_81">
    <path d="M 75.89 382.84 
L 709.2 382.84 
" style="fill: none; stroke: #000000; stroke-width: 0.8; stroke-linejoin: miter; stroke-linecap: square"/>
   </g>
   <g id="patch_82">
    <path d="M 75.89 10.8 
L 709.2 10.8 
" style="fill: none; stroke: #000000; stroke-width: 0.8; stroke-linejoin: miter; stroke-linecap: square"/>
   </g>
   <g id="legend_1">
    <g id="patch_83">
     <path d="M 84.29 105.256875 
L 272.988125 105.256875 
Q 275.388125 105.256875 275.388125 102.856875 
L 275.388125 19.2 
Q 275.388125 16.8 272.988125 16.8 
L 84.29 16.8 
Q 81.89 16.8 81.89 19.2 
L 81.89 102.856875 
Q 81.89 105.256875 84.29 105.256875 
z
" style="fill: #ffffff; opacity: 0.8; stroke: #cccccc; stroke-linejoin: miter"/>
    </g>
    <g id="line2d_37">
     <path d="M 86.69 25.8 
L 98.69 25.8 
L 110.69 25.8 
" style="fill: none; stroke: #000000; stroke-width: 1.5; stroke-linecap: square"/>
     <g>
      <use xlink:href="#mf89dead17e" x="98.69" y="25.8" style="stroke: #000000"/>
     </g>
    </g>
    <g id="text_37">
     <!-- Total Cost -->
     <g transform="translate(120.29 30) scale(0.12 -0.12)">
      <defs>
       <path id="TimesNewRomanPSMT-54" d="M 3703 4238 
L 3750 3244 
L 3631 3244 
Q 3597 3506 3538 3619 
Q 3441 3800 3280 3886 
Q 3119 3972 2856 3972 
L 2259 3972 
L 2259 734 
Q 2259 344 2344 247 
Q 2463 116 2709 116 
L 2856 116 
L 2856 0 
L 1059 0 
L 1059 116 
L 1209 116 
Q 1478 116 1591 278 
Q 1659 378 1659 734 
L 1659 3972 
L 1150 3972 
Q 853 3972 728 3928 
Q 566 3869 450 3700 
Q 334 3531 313 3244 
L 194 3244 
L 244 4238 
L 3703 4238 
z
" transform="scale(0.015625)"/>
       <path id="TimesNewRomanPSMT-74" d="M 1031 3803 
L 1031 2863 
L 1700 2863 
L 1700 2644 
L 1031 2644 
L 1031 788 
Q 1031 509 1111 412 
Q 1191 316 1316 316 
Q 1419 316 1516 380 
Q 1613 444 1666 569 
L 1788 569 
Q 1678 263 1478 108 
Q 1278 -47 1066 -47 
Q 922 -47 784 33 
Q 647 113 581 261 
Q 516 409 516 719 
L 516 2644 
L 63 2644 
L 63 2747 
Q 234 2816 414 2980 
Q 594 3144 734 3369 
Q 806 3488 934 3803 
L 1031 3803 
z
" transform="scale(0.015625)"/>
      </defs>
      <use xlink:href="#TimesNewRomanPSMT-54"/>
      <use xlink:href="#TimesNewRomanPSMT-6f" transform="translate(54.083984 0)"/>
      <use xlink:href="#TimesNewRomanPSMT-74" transform="translate(104.083984 0)"/>
      <use xlink:href="#TimesNewRomanPSMT-61" transform="translate(131.867188 0)"/>
      <use xlink:href="#TimesNewRomanPSMT-6c" transform="translate(176.251953 0)"/>
      <use xlink:href="#TimesNewRomanPSMT-20" transform="translate(204.035156 0)"/>
      <use xlink:href="#TimesNewRomanPSMT-43" transform="translate(229.035156 0)"/>
      <use xlink:href="#TimesNewRomanPSMT-6f" transform="translate(295.734375 0)"/>
      <use xlink:href="#TimesNewRomanPSMT-73" transform="translate(345.734375 0)"/>
      <use xlink:href="#TimesNewRomanPSMT-74" transform="translate(384.650391 0)"/>
     </g>
    </g>
    <g id="patch_84">
     <path d="M 86.69 46.966875 
L 110.69 46.966875 
L 110.69 38.566875 
L 86.69 38.566875 
z
" style="fill: #a52a2a"/>
    </g>
    <g id="text_38">
     <!-- Maintenance &amp; Operating Cost -->
     <g transform="translate(120.29 46.966875) scale(0.12 -0.12)">
      <defs>
       <path id="TimesNewRomanPSMT-4d" d="M 2619 0 
L 981 3566 
L 981 734 
Q 981 344 1066 247 
Q 1181 116 1431 116 
L 1581 116 
L 1581 0 
L 106 0 
L 106 116 
L 256 116 
Q 525 116 638 278 
Q 706 378 706 734 
L 706 3503 
Q 706 3784 644 3909 
Q 600 4000 483 4061 
Q 366 4122 106 4122 
L 106 4238 
L 1306 4238 
L 2844 922 
L 4356 4238 
L 5556 4238 
L 5556 4122 
L 5409 4122 
Q 5138 4122 5025 3959 
Q 4956 3859 4956 3503 
L 4956 734 
Q 4956 344 5044 247 
Q 5159 116 5409 116 
L 5556 116 
L 5556 0 
L 3756 0 
L 3756 116 
L 3906 116 
Q 4178 116 4288 278 
Q 4356 378 4356 734 
L 4356 3566 
L 2722 0 
L 2619 0 
z
" transform="scale(0.015625)"/>
       <path id="TimesNewRomanPSMT-69" d="M 928 4444 
Q 1059 4444 1151 4351 
Q 1244 4259 1244 4128 
Q 1244 3997 1151 3903 
Q 1059 3809 928 3809 
Q 797 3809 703 3903 
Q 609 3997 609 4128 
Q 609 4259 701 4351 
Q 794 4444 928 4444 
z
M 1188 2947 
L 1188 647 
Q 1188 378 1227 289 
Q 1266 200 1342 156 
Q 1419 113 1622 113 
L 1622 0 
L 231 0 
L 231 113 
Q 441 113 512 153 
Q 584 194 626 287 
Q 669 381 669 647 
L 669 1750 
Q 669 2216 641 2353 
Q 619 2453 572 2492 
Q 525 2531 444 2531 
Q 356 2531 231 2484 
L 188 2597 
L 1050 2947 
L 1188 2947 
z
" transform="scale(0.015625)"/>
       <path id="TimesNewRomanPSMT-6e" d="M 1034 2341 
Q 1538 2947 1994 2947 
Q 2228 2947 2397 2830 
Q 2566 2713 2666 2444 
Q 2734 2256 2734 1869 
L 2734 647 
Q 2734 375 2778 278 
Q 2813 200 2889 156 
Q 2966 113 3172 113 
L 3172 0 
L 1756 0 
L 1756 113 
L 1816 113 
Q 2016 113 2095 173 
Q 2175 234 2206 353 
Q 2219 400 2219 647 
L 2219 1819 
Q 2219 2209 2117 2386 
Q 2016 2563 1775 2563 
Q 1403 2563 1034 2156 
L 1034 647 
Q 1034 356 1069 288 
Q 1113 197 1189 155 
Q 1266 113 1500 113 
L 1500 0 
L 84 0 
L 84 113 
L 147 113 
Q 366 113 442 223 
Q 519 334 519 647 
L 519 1709 
Q 519 2225 495 2337 
Q 472 2450 423 2490 
Q 375 2531 294 2531 
Q 206 2531 84 2484 
L 38 2597 
L 900 2947 
L 1034 2947 
L 1034 2341 
z
" transform="scale(0.015625)"/>
       <path id="TimesNewRomanPSMT-63" d="M 2631 1088 
Q 2516 522 2178 217 
Q 1841 -88 1431 -88 
Q 944 -88 581 321 
Q 219 731 219 1428 
Q 219 2103 620 2525 
Q 1022 2947 1584 2947 
Q 2006 2947 2278 2723 
Q 2550 2500 2550 2259 
Q 2550 2141 2473 2067 
Q 2397 1994 2259 1994 
Q 2075 1994 1981 2113 
Q 1928 2178 1911 2362 
Q 1894 2547 1784 2644 
Q 1675 2738 1481 2738 
Q 1169 2738 978 2506 
Q 725 2200 725 1697 
Q 725 1184 976 792 
Q 1228 400 1656 400 
Q 1963 400 2206 609 
Q 2378 753 2541 1131 
L 2631 1088 
z
" transform="scale(0.015625)"/>
       <path id="TimesNewRomanPSMT-26" d="M 3266 2728 
L 4578 2728 
L 4578 2613 
Q 4306 2591 4176 2492 
Q 4047 2394 3772 1897 
Q 3497 1400 3153 969 
Q 3431 644 3650 514 
Q 3869 384 4091 384 
Q 4306 384 4456 501 
Q 4606 619 4669 847 
L 4784 763 
Q 4669 322 4412 112 
Q 4156 -97 3816 -97 
Q 3559 -97 3295 42 
Q 3031 181 2719 513 
Q 2331 169 2020 36 
Q 1709 -97 1356 -97 
Q 841 -97 537 178 
Q 234 453 234 834 
Q 234 1213 506 1589 
Q 778 1966 1528 2369 
Q 1381 2694 1328 2901 
Q 1275 3109 1275 3300 
Q 1275 3834 1669 4116 
Q 1975 4334 2366 4334 
Q 2738 4334 2972 4114 
Q 3206 3894 3206 3572 
Q 3206 3241 2979 2991 
Q 2753 2741 2178 2444 
Q 2575 1738 3006 1150 
Q 3556 1806 3556 2256 
Q 3556 2400 3463 2513 
Q 3394 2597 3266 2613 
L 3266 2728 
z
M 2072 2647 
Q 2459 2831 2651 3065 
Q 2844 3300 2844 3588 
Q 2844 3813 2705 3959 
Q 2566 4106 2359 4106 
Q 2088 4106 1948 3917 
Q 1809 3728 1809 3547 
Q 1809 3394 1862 3205 
Q 1916 3016 2072 2647 
z
M 2556 694 
Q 2144 1256 1984 1515 
Q 1825 1775 1634 2159 
Q 1259 1944 1070 1684 
Q 881 1425 881 1122 
Q 881 788 1097 534 
Q 1313 281 1678 281 
Q 1875 281 2058 359 
Q 2241 438 2556 694 
z
" transform="scale(0.015625)"/>
       <path id="TimesNewRomanPSMT-4f" d="M 2341 4334 
Q 3166 4334 3770 3707 
Q 4375 3081 4375 2144 
Q 4375 1178 3765 540 
Q 3156 -97 2291 -97 
Q 1416 -97 820 525 
Q 225 1147 225 2134 
Q 225 3144 913 3781 
Q 1509 4334 2341 4334 
z
M 2281 4106 
Q 1713 4106 1369 3684 
Q 941 3159 941 2147 
Q 941 1109 1384 550 
Q 1725 125 2284 125 
Q 2881 125 3270 590 
Q 3659 1056 3659 2059 
Q 3659 3147 3231 3681 
Q 2888 4106 2281 4106 
z
" transform="scale(0.015625)"/>
       <path id="TimesNewRomanPSMT-70" d="M -6 2578 
L 875 2934 
L 994 2934 
L 994 2266 
Q 1216 2644 1439 2795 
Q 1663 2947 1909 2947 
Q 2341 2947 2628 2609 
Q 2981 2197 2981 1534 
Q 2981 794 2556 309 
Q 2206 -88 1675 -88 
Q 1444 -88 1275 -22 
Q 1150 25 994 166 
L 994 -706 
Q 994 -1000 1030 -1079 
Q 1066 -1159 1155 -1206 
Q 1244 -1253 1478 -1253 
L 1478 -1369 
L -22 -1369 
L -22 -1253 
L 56 -1253 
Q 228 -1256 350 -1188 
Q 409 -1153 442 -1076 
Q 475 -1000 475 -688 
L 475 2019 
Q 475 2297 450 2372 
Q 425 2447 370 2484 
Q 316 2522 222 2522 
Q 147 2522 31 2478 
L -6 2578 
z
M 994 2081 
L 994 1013 
Q 994 666 1022 556 
Q 1066 375 1236 237 
Q 1406 100 1666 100 
Q 1978 100 2172 344 
Q 2425 663 2425 1241 
Q 2425 1897 2138 2250 
Q 1938 2494 1663 2494 
Q 1513 2494 1366 2419 
Q 1253 2363 994 2081 
z
" transform="scale(0.015625)"/>
       <path id="TimesNewRomanPSMT-67" d="M 966 1044 
Q 703 1172 562 1401 
Q 422 1631 422 1909 
Q 422 2334 742 2640 
Q 1063 2947 1563 2947 
Q 1972 2947 2272 2747 
L 2878 2747 
Q 3013 2747 3034 2739 
Q 3056 2731 3066 2713 
Q 3084 2684 3084 2613 
Q 3084 2531 3069 2500 
Q 3059 2484 3036 2475 
Q 3013 2466 2878 2466 
L 2506 2466 
Q 2681 2241 2681 1891 
Q 2681 1491 2375 1206 
Q 2069 922 1553 922 
Q 1341 922 1119 984 
Q 981 866 932 777 
Q 884 688 884 625 
Q 884 572 936 522 
Q 988 472 1138 450 
Q 1225 438 1575 428 
Q 2219 413 2409 384 
Q 2700 344 2873 169 
Q 3047 -6 3047 -263 
Q 3047 -616 2716 -925 
Q 2228 -1381 1444 -1381 
Q 841 -1381 425 -1109 
Q 191 -953 191 -784 
Q 191 -709 225 -634 
Q 278 -519 444 -313 
Q 466 -284 763 25 
Q 600 122 533 198 
Q 466 275 466 372 
Q 466 481 555 628 
Q 644 775 966 1044 
z
M 1509 2797 
Q 1278 2797 1122 2612 
Q 966 2428 966 2047 
Q 966 1553 1178 1281 
Q 1341 1075 1591 1075 
Q 1828 1075 1981 1253 
Q 2134 1431 2134 1813 
Q 2134 2309 1919 2591 
Q 1759 2797 1509 2797 
z
M 934 0 
Q 788 -159 713 -296 
Q 638 -434 638 -550 
Q 638 -700 819 -813 
Q 1131 -1006 1722 -1006 
Q 2284 -1006 2551 -807 
Q 2819 -609 2819 -384 
Q 2819 -222 2659 -153 
Q 2497 -84 2016 -72 
Q 1313 -53 934 0 
z
" transform="scale(0.015625)"/>
      </defs>
      <use xlink:href="#TimesNewRomanPSMT-4d"/>
      <use xlink:href="#TimesNewRomanPSMT-61" transform="translate(88.916016 0)"/>
      <use xlink:href="#TimesNewRomanPSMT-69" transform="translate(133.300781 0)"/>
      <use xlink:href="#TimesNewRomanPSMT-6e" transform="translate(161.083984 0)"/>
      <use xlink:href="#TimesNewRomanPSMT-74" transform="translate(211.083984 0)"/>
      <use xlink:href="#TimesNewRomanPSMT-65" transform="translate(238.867188 0)"/>
      <use xlink:href="#TimesNewRomanPSMT-6e" transform="translate(283.251953 0)"/>
      <use xlink:href="#TimesNewRomanPSMT-61" transform="translate(333.251953 0)"/>
      <use xlink:href="#TimesNewRomanPSMT-6e" transform="translate(377.636719 0)"/>
      <use xlink:href="#TimesNewRomanPSMT-63" transform="translate(427.636719 0)"/>
      <use xlink:href="#TimesNewRomanPSMT-65" transform="translate(472.021484 0)"/>
      <use xlink:href="#TimesNewRomanPSMT-20" transform="translate(516.40625 0)"/>
      <use xlink:href="#TimesNewRomanPSMT-26" transform="translate(541.40625 0)"/>
      <use xlink:href="#TimesNewRomanPSMT-20" transform="translate(619.189453 0)"/>
      <use xlink:href="#TimesNewRomanPSMT-4f" transform="translate(644.189453 0)"/>
      <use xlink:href="#TimesNewRomanPSMT-70" transform="translate(716.40625 0)"/>
      <use xlink:href="#TimesNewRomanPSMT-65" transform="translate(766.40625 0)"/>
      <use xlink:href="#TimesNewRomanPSMT-72" transform="translate(810.791016 0)"/>
      <use xlink:href="#TimesNewRomanPSMT-61" transform="translate(844.091797 0)"/>
      <use xlink:href="#TimesNewRomanPSMT-74" transform="translate(888.476562 0)"/>
      <use xlink:href="#TimesNewRomanPSMT-69" transform="translate(916.259766 0)"/>
      <use xlink:href="#TimesNewRomanPSMT-6e" transform="translate(944.042969 0)"/>
      <use xlink:href="#TimesNewRomanPSMT-67" transform="translate(994.042969 0)"/>
      <use xlink:href="#TimesNewRomanPSMT-20" transform="translate(1044.042969 0)"/>
      <use xlink:href="#TimesNewRomanPSMT-43" transform="translate(1069.042969 0)"/>
      <use xlink:href="#TimesNewRomanPSMT-6f" transform="translate(1135.742188 0)"/>
      <use xlink:href="#TimesNewRomanPSMT-73" transform="translate(1185.742188 0)"/>
      <use xlink:href="#TimesNewRomanPSMT-74" transform="translate(1224.658203 0)"/>
     </g>
    </g>
    <g id="patch_85">
     <path d="M 86.69 63.95625 
L 110.69 63.95625 
L 110.69 55.55625 
L 86.69 55.55625 
z
" style="fill: #800080"/>
    </g>
    <g id="text_39">
     <!-- Grid Cost -->
     <g transform="translate(120.29 63.95625) scale(0.12 -0.12)">
      <defs>
       <path id="TimesNewRomanPSMT-47" d="M 3928 4334 
L 4038 2997 
L 3928 2997 
Q 3763 3497 3500 3750 
Q 3122 4116 2528 4116 
Q 1719 4116 1297 3475 
Q 944 2934 944 2188 
Q 944 1581 1178 1081 
Q 1413 581 1792 348 
Q 2172 116 2572 116 
Q 2806 116 3025 175 
Q 3244 234 3447 350 
L 3447 1575 
Q 3447 1894 3398 1992 
Q 3350 2091 3248 2142 
Q 3147 2194 2891 2194 
L 2891 2313 
L 4531 2313 
L 4531 2194 
L 4453 2194 
Q 4209 2194 4119 2031 
Q 4056 1916 4056 1575 
L 4056 278 
Q 3697 84 3347 -6 
Q 2997 -97 2569 -97 
Q 1341 -97 703 691 
Q 225 1281 225 2053 
Q 225 2613 494 3125 
Q 813 3734 1369 4063 
Q 1834 4334 2469 4334 
Q 2700 4334 2889 4296 
Q 3078 4259 3425 4131 
Q 3600 4066 3659 4066 
Q 3719 4066 3761 4120 
Q 3803 4175 3813 4334 
L 3928 4334 
z
" transform="scale(0.015625)"/>
       <path id="TimesNewRomanPSMT-64" d="M 2222 322 
Q 2013 103 1813 7 
Q 1613 -88 1381 -88 
Q 913 -88 563 304 
Q 213 697 213 1313 
Q 213 1928 600 2439 
Q 988 2950 1597 2950 
Q 1975 2950 2222 2709 
L 2222 3238 
Q 2222 3728 2198 3840 
Q 2175 3953 2125 3993 
Q 2075 4034 2000 4034 
Q 1919 4034 1784 3984 
L 1744 4094 
L 2597 4444 
L 2738 4444 
L 2738 1134 
Q 2738 631 2761 520 
Q 2784 409 2836 365 
Q 2888 322 2956 322 
Q 3041 322 3181 375 
L 3216 266 
L 2366 -88 
L 2222 -88 
L 2222 322 
z
M 2222 541 
L 2222 2016 
Q 2203 2228 2109 2403 
Q 2016 2578 1861 2667 
Q 1706 2756 1559 2756 
Q 1284 2756 1069 2509 
Q 784 2184 784 1559 
Q 784 928 1059 592 
Q 1334 256 1672 256 
Q 1956 256 2222 541 
z
" transform="scale(0.015625)"/>
      </defs>
      <use xlink:href="#TimesNewRomanPSMT-47"/>
      <use xlink:href="#TimesNewRomanPSMT-72" transform="translate(72.216797 0)"/>
      <use xlink:href="#TimesNewRomanPSMT-69" transform="translate(105.517578 0)"/>
      <use xlink:href="#TimesNewRomanPSMT-64" transform="translate(133.300781 0)"/>
      <use xlink:href="#TimesNewRomanPSMT-20" transform="translate(183.300781 0)"/>
      <use xlink:href="#TimesNewRomanPSMT-43" transform="translate(208.300781 0)"/>
      <use xlink:href="#TimesNewRomanPSMT-6f" transform="translate(275 0)"/>
      <use xlink:href="#TimesNewRomanPSMT-73" transform="translate(325 0)"/>
      <use xlink:href="#TimesNewRomanPSMT-74" transform="translate(363.916016 0)"/>
     </g>
    </g>
    <g id="patch_86">
     <path d="M 86.69 80.923125 
L 110.69 80.923125 
L 110.69 72.523125 
L 86.69 72.523125 
z
" style="fill: #00ffff"/>
    </g>
    <g id="text_40">
     <!-- Avoided Costs -->
     <g transform="translate(120.29 80.923125) scale(0.12 -0.12)">
      <defs>
       <path id="TimesNewRomanPSMT-41" d="M 2928 1419 
L 1288 1419 
L 1000 750 
Q 894 503 894 381 
Q 894 284 986 211 
Q 1078 138 1384 116 
L 1384 0 
L 50 0 
L 50 116 
Q 316 163 394 238 
Q 553 388 747 847 
L 2238 4334 
L 2347 4334 
L 3822 809 
Q 4000 384 4145 257 
Q 4291 131 4550 116 
L 4550 0 
L 2878 0 
L 2878 116 
Q 3131 128 3220 200 
Q 3309 272 3309 375 
Q 3309 513 3184 809 
L 2928 1419 
z
M 2841 1650 
L 2122 3363 
L 1384 1650 
L 2841 1650 
z
" transform="scale(0.015625)"/>
       <path id="TimesNewRomanPSMT-76" d="M 53 2863 
L 1400 2863 
L 1400 2747 
L 1313 2747 
Q 1191 2747 1127 2687 
Q 1063 2628 1063 2528 
Q 1063 2419 1128 2269 
L 1794 688 
L 2463 2328 
Q 2534 2503 2534 2594 
Q 2534 2638 2509 2666 
Q 2475 2713 2422 2730 
Q 2369 2747 2206 2747 
L 2206 2863 
L 3141 2863 
L 3141 2747 
Q 2978 2734 2916 2681 
Q 2806 2588 2719 2369 
L 1703 -88 
L 1575 -88 
L 553 2328 
Q 484 2497 421 2570 
Q 359 2644 263 2694 
Q 209 2722 53 2747 
L 53 2863 
z
" transform="scale(0.015625)"/>
      </defs>
      <use xlink:href="#TimesNewRomanPSMT-41"/>
      <use xlink:href="#TimesNewRomanPSMT-76" transform="translate(64.841797 0)"/>
      <use xlink:href="#TimesNewRomanPSMT-6f" transform="translate(114.841797 0)"/>
      <use xlink:href="#TimesNewRomanPSMT-69" transform="translate(164.841797 0)"/>
      <use xlink:href="#TimesNewRomanPSMT-64" transform="translate(192.625 0)"/>
      <use xlink:href="#TimesNewRomanPSMT-65" transform="translate(242.625 0)"/>
      <use xlink:href="#TimesNewRomanPSMT-64" transform="translate(287.009766 0)"/>
      <use xlink:href="#TimesNewRomanPSMT-20" transform="translate(337.009766 0)"/>
      <use xlink:href="#TimesNewRomanPSMT-43" transform="translate(362.009766 0)"/>
      <use xlink:href="#TimesNewRomanPSMT-6f" transform="translate(428.708984 0)"/>
      <use xlink:href="#TimesNewRomanPSMT-73" transform="translate(478.708984 0)"/>
      <use xlink:href="#TimesNewRomanPSMT-74" transform="translate(517.625 0)"/>
      <use xlink:href="#TimesNewRomanPSMT-73" transform="translate(545.408203 0)"/>
     </g>
    </g>
    <g id="patch_87">
     <path d="M 86.69 97.89 
L 110.69 97.89 
L 110.69 89.49 
L 86.69 89.49 
z
" style="fill: #ff0000"/>
    </g>
    <g id="text_41">
     <!-- Initial Investment -->
     <g transform="translate(120.29 97.89) scale(0.12 -0.12)">
      <defs>
       <path id="TimesNewRomanPSMT-49" d="M 1975 116 
L 1975 0 
L 159 0 
L 159 116 
L 309 116 
Q 572 116 691 269 
Q 766 369 766 750 
L 766 3488 
Q 766 3809 725 3913 
Q 694 3991 597 4047 
Q 459 4122 309 4122 
L 159 4122 
L 159 4238 
L 1975 4238 
L 1975 4122 
L 1822 4122 
Q 1563 4122 1444 3969 
Q 1366 3869 1366 3488 
L 1366 750 
Q 1366 428 1406 325 
Q 1438 247 1538 191 
Q 1672 116 1822 116 
L 1975 116 
z
" transform="scale(0.015625)"/>
       <path id="TimesNewRomanPSMT-6d" d="M 1050 2338 
Q 1363 2650 1419 2697 
Q 1559 2816 1721 2881 
Q 1884 2947 2044 2947 
Q 2313 2947 2506 2790 
Q 2700 2634 2766 2338 
Q 3088 2713 3309 2830 
Q 3531 2947 3766 2947 
Q 3994 2947 4170 2830 
Q 4347 2713 4450 2447 
Q 4519 2266 4519 1878 
L 4519 647 
Q 4519 378 4559 278 
Q 4591 209 4675 161 
Q 4759 113 4950 113 
L 4950 0 
L 3538 0 
L 3538 113 
L 3597 113 
Q 3781 113 3884 184 
Q 3956 234 3988 344 
Q 4000 397 4000 647 
L 4000 1878 
Q 4000 2228 3916 2372 
Q 3794 2572 3525 2572 
Q 3359 2572 3192 2489 
Q 3025 2406 2788 2181 
L 2781 2147 
L 2788 2013 
L 2788 647 
Q 2788 353 2820 281 
Q 2853 209 2943 161 
Q 3034 113 3253 113 
L 3253 0 
L 1806 0 
L 1806 113 
Q 2044 113 2133 169 
Q 2222 225 2256 338 
Q 2272 391 2272 647 
L 2272 1878 
Q 2272 2228 2169 2381 
Q 2031 2581 1784 2581 
Q 1616 2581 1450 2491 
Q 1191 2353 1050 2181 
L 1050 647 
Q 1050 366 1089 281 
Q 1128 197 1204 155 
Q 1281 113 1516 113 
L 1516 0 
L 100 0 
L 100 113 
Q 297 113 375 155 
Q 453 197 493 289 
Q 534 381 534 647 
L 534 1741 
Q 534 2213 506 2350 
Q 484 2453 437 2492 
Q 391 2531 309 2531 
Q 222 2531 100 2484 
L 53 2597 
L 916 2947 
L 1050 2947 
L 1050 2338 
z
" transform="scale(0.015625)"/>
      </defs>
      <use xlink:href="#TimesNewRomanPSMT-49"/>
      <use xlink:href="#TimesNewRomanPSMT-6e" transform="translate(33.300781 0)"/>
      <use xlink:href="#TimesNewRomanPSMT-69" transform="translate(83.300781 0)"/>
      <use xlink:href="#TimesNewRomanPSMT-74" transform="translate(111.083984 0)"/>
      <use xlink:href="#TimesNewRomanPSMT-69" transform="translate(138.867188 0)"/>
      <use xlink:href="#TimesNewRomanPSMT-61" transform="translate(166.650391 0)"/>
      <use xlink:href="#TimesNewRomanPSMT-6c" transform="translate(211.035156 0)"/>
      <use xlink:href="#TimesNewRomanPSMT-20" transform="translate(238.818359 0)"/>
      <use xlink:href="#TimesNewRomanPSMT-49" transform="translate(263.818359 0)"/>
      <use xlink:href="#TimesNewRomanPSMT-6e" transform="translate(297.119141 0)"/>
      <use xlink:href="#TimesNewRomanPSMT-76" transform="translate(347.119141 0)"/>
      <use xlink:href="#TimesNewRomanPSMT-65" transform="translate(397.119141 0)"/>
      <use xlink:href="#TimesNewRomanPSMT-73" transform="translate(441.503906 0)"/>
      <use xlink:href="#TimesNewRomanPSMT-74" transform="translate(480.419922 0)"/>
      <use xlink:href="#TimesNewRomanPSMT-6d" transform="translate(508.203125 0)"/>
      <use xlink:href="#TimesNewRomanPSMT-65" transform="translate(585.986328 0)"/>
      <use xlink:href="#TimesNewRomanPSMT-6e" transform="translate(630.371094 0)"/>
      <use xlink:href="#TimesNewRomanPSMT-74" transform="translate(680.371094 0)"/>
     </g>
    </g>
   </g>
  </g>
 </g>
 <defs>
  <clipPath id="pcec6533dca">
   <rect x="75.89" y="10.8" width="633.31" height="372.04"/>
  </clipPath>
 </defs>
</svg>
